<svg viewBox="0 0 800 500" xmlns="http://www.w3.org/2000/svg">
  <rect width="800" height="500" fill="#F3EEE8" />
  <defs>
    <linearGradient id="g2" x1="0" y1="0" x2="1" y2="1">
      <stop offset="0%" stop-color="#C28A58" stop-opacity="0.35" />
      <stop offset="100%" stop-color="#4A2F27" stop-opacity="0.15" />
    </linearGradient>
  </defs>
  <rect width="800" height="500" fill="url(#g2)" />
  <circle cx="400" cy="250" r="150" fill="#FFFFFF" stroke="#E8DED5" stroke-width="2" />
  <circle cx="400" cy="250" r="110" fill="none" stroke="#D7B899" stroke-width="2" stroke-dasharray="6 10" />
  <g fill="#4A2F27">
    <rect x="270" y="200" width="14" height="90" rx="7" />
    <rect x="270" y="200" width="14" height="30" rx="7" />
    <path d="M310 200v40a14 14 0 0 0 14 14v36a7 7 0 0 0 14 0v-36a14 14 0 0 0 14-14v-40h-8v34h-6v-34h-6v34h-6v-34z" />
  </g>
  <rect x="420" y="215" width="110" height="70" rx="12" fill="#C28A58" opacity="0.85" />
  <rect x="440" y="235" width="70" height="10" rx="5" fill="#FFFFFF" opacity="0.8" />
  <rect x="440" y="255" width="45" height="8" rx="4" fill="#FFFFFF" opacity="0.6" />
</svg>
