<svg viewBox="0 0 800 500" xmlns="http://www.w3.org/2000/svg">
  <rect width="800" height="500" fill="#F3EEE8" />
  <rect x="0" y="0" width="800" height="500" fill="url(#g)" opacity="0.5" />
  <defs>
    <linearGradient id="g" x1="0" y1="0" x2="1" y2="1">
      <stop offset="0%" stop-color="#D7B899" stop-opacity="0.4" />
      <stop offset="100%" stop-color="#C28A58" stop-opacity="0.25" />
    </linearGradient>
  </defs>
  <g>
    <rect x="60" y="90" width="200" height="320" rx="16" fill="#FFFFFF" stroke="#E8DED5" stroke-width="2" />
    <rect x="300" y="90" width="200" height="320" rx="16" fill="#FFFFFF" stroke="#E8DED5" stroke-width="2" />
    <rect x="540" y="90" width="200" height="320" rx="16" fill="#FFFFFF" stroke="#E8DED5" stroke-width="2" />
    <rect x="84" y="118" width="152" height="16" rx="6" fill="#4A2F27" />
    <rect x="324" y="118" width="152" height="16" rx="6" fill="#6F4E37" />
    <rect x="564" y="118" width="152" height="16" rx="6" fill="#C28A58" />
    <rect x="84" y="160" width="152" height="60" rx="10" fill="#F3EEE8" />
    <rect x="84" y="232" width="152" height="60" rx="10" fill="#F3EEE8" />
    <rect x="324" y="160" width="152" height="60" rx="10" fill="#F3EEE8" />
    <rect x="324" y="232" width="152" height="60" rx="10" fill="#F3EEE8" />
    <rect x="324" y="304" width="152" height="60" rx="10" fill="#F3EEE8" />
    <rect x="564" y="160" width="152" height="60" rx="10" fill="#F3EEE8" />
  </g>
</svg>
